<svg width="81" height="72" viewBox="0 0 81 72" fill="none" xmlns="http://www.w3.org/2000/svg">
<path d="M32.46 52.1997H38.249" stroke="#015B8D" stroke-width="2" stroke-miterlimit="10"/>
<path d="M8.79999 60.5996H40.8222" stroke="#015B8D" stroke-width="2" stroke-miterlimit="10"/>
<path d="M5.99998 60.5996H3.19998" stroke="#015B8D" stroke-width="2" stroke-miterlimit="10"/>
<path d="M74.6 7.3999H35.6674C32.8394 7.3999 30.1598 8.6683 28.3692 10.8579L18.6 22.7999L5.38259 30.5111C3.16499 31.8047 1.79999 34.1791 1.79999 36.7467V47.9411C1.79999 50.2945 3.70539 52.1999 6.05739 52.1999H18.74" stroke="#015B8D" stroke-width="2" stroke-miterlimit="10"/>
<path d="M77.4 7.3999H80.2" stroke="#015B8D" stroke-width="2" stroke-miterlimit="10"/>
<path d="M80.2 15.7998H77.4" stroke="#015B8D" stroke-width="2" stroke-miterlimit="10"/>
<path d="M74.6 15.7998H53.6" stroke="#015B8D" stroke-width="2" stroke-miterlimit="10"/>
<path d="M80.2 24.1997H77.4" stroke="#015B8D" stroke-width="2" stroke-miterlimit="10"/>
<path d="M74.6 24.1997H63.4" stroke="#015B8D" stroke-width="2" stroke-miterlimit="10"/>
<path d="M13 26.0659V33.9997C13 36.3195 11.1184 38.1997 8.79999 38.1997H1.79999" stroke="#015B8D" stroke-width="2" stroke-miterlimit="10"/>
<path d="M43.8 21.4V14.4C43.8 13.6258 43.1742 13 42.4 13H35.666C34.5194 13 33.433 13.5152 32.7064 14.4028L24.3344 24.6354C24.018 25.0204 24.2924 25.6 24.7908 25.6H43.8" stroke="#015B8D" stroke-width="2" stroke-miterlimit="10"/>
<path d="M43.8 20V31.2" stroke="#015B8D" stroke-width="2" stroke-miterlimit="10"/>
<path d="M14.4 66.1997H17.2" stroke="#015B8D" stroke-width="2" stroke-miterlimit="10"/>
<path d="M20 66.1997H35.4" stroke="#015B8D" stroke-width="2" stroke-miterlimit="10"/>
<path d="M62 1.7998H59.2" stroke="#015B8D" stroke-width="2" stroke-miterlimit="10"/>
<path d="M56.4 1.7998H11.6" stroke="#015B8D" stroke-width="2" stroke-miterlimit="10"/>
<path d="M46.9276 34.4897C47.587 34.0487 48.2758 33.6455 48.9898 33.2871" stroke="#015B8D" stroke-width="2" stroke-miterlimit="10"/>
<path d="M52.6312 31.8885C54.2776 31.4391 56.0108 31.1997 57.8 31.1997C68.6248 31.1997 77.4 39.9749 77.4 50.7997C77.4 61.6245 68.6248 70.3997 57.8 70.3997C46.9752 70.3997 38.2 61.6245 38.2 50.7997C38.2 45.6393 40.1936 40.9465 43.4514 37.4479" stroke="#015B8D" stroke-width="2" stroke-miterlimit="10"/>
</svg>
