<svg width="84" height="84" viewBox="0 0 84 84" fill="none" xmlns="http://www.w3.org/2000/svg">
<path d="M62.5898 21.4102L70 14" stroke="#015B8D" stroke-width="2" stroke-miterlimit="10"/>
<path d="M77 7.00003H81.606C82.4894 7.00003 82.9318 8.06823 82.3074 8.69263L77.4102 13.5898C77.147 13.853 76.7914 14 76.4204 14H70V7.57963C70 7.20863 70.147 6.85163 70.4102 6.58983L75.3074 1.69263C75.9318 1.06823 77 1.51063 77 2.39403V7.00003Z" stroke="#015B8D" stroke-width="2" stroke-miterlimit="10"/>
<path d="M66.1542 31.0099C64.54 34.2075 61.2262 36.3999 57.4 36.3999C51.9876 36.3999 47.6 32.0123 47.6 26.5999C47.6 22.7737 49.7924 19.4599 52.99 17.8457" stroke="#015B8D" stroke-width="2" stroke-miterlimit="10"/>
<path d="M72.191 18.6254C73.472 20.9984 74.2 23.7144 74.2 26.5998C74.2 35.8776 66.6778 43.3998 57.4 43.3998C48.1222 43.3998 40.6 35.8776 40.6 26.5998C40.6 17.322 48.1222 9.7998 57.4 9.7998C60.2854 9.7998 63.0014 10.5278 65.3744 11.8088" stroke="#015B8D" stroke-width="2" stroke-miterlimit="10"/>
<path d="M79.2652 17.1862C80.5098 20.073 81.2 23.2566 81.2 26.5998C81.2 39.7444 70.5446 50.3998 57.4 50.3998C44.2554 50.3998 33.6 39.7444 33.6 26.5998C33.6 13.4552 44.2554 2.7998 57.4 2.7998C60.7432 2.7998 63.9268 3.49 66.8136 4.7346" stroke="#015B8D" stroke-width="2" stroke-miterlimit="10"/>
<path d="M64.4 49.3544V58.8002C64.4 61.12 62.5198 63.0002 60.2 63.0002H6.99999C4.68019 63.0002 2.79999 61.12 2.79999 58.8002V22.4002C2.79999 20.0804 4.68019 18.2002 6.99999 18.2002H35.1288" stroke="#015B8D" stroke-width="2" stroke-miterlimit="10"/>
<path d="M33.6 63V82.6" stroke="#015B8D" stroke-width="2" stroke-miterlimit="10"/>
<path d="M24.6316 82.2374L33.6 68.1548L42.5684 82.2374" stroke="#015B8D" stroke-width="2" stroke-miterlimit="10"/>
<path d="M60.2 56H57.4V58.8H60.2V56Z" fill="#015B8D"/>
<path d="M54.6 56H51.8V58.8H54.6V56Z" fill="#015B8D"/>
<path d="M49 56H46.2V58.8H49V56Z" fill="#015B8D"/>
<path d="M54.6 68.6001H58.8" stroke="#015B8D" stroke-width="2" stroke-miterlimit="10"/>
<path d="M61.6 68.6001H77" stroke="#015B8D" stroke-width="2" stroke-miterlimit="10"/>
<path d="M2.79999 12.6001H6.99999" stroke="#015B8D" stroke-width="2" stroke-miterlimit="10"/>
<path d="M9.79999 12.6001H25.2" stroke="#015B8D" stroke-width="2" stroke-miterlimit="10"/>
<path d="M9.79999 36.4001V37.1001C9.79999 39.0335 11.3666 40.6001 13.3 40.6001H17.5C19.4334 40.6001 21 39.0335 21 37.1001C21 35.1667 19.4334 33.6001 17.5 33.6001H13.3C11.3666 33.6001 9.79999 32.0335 9.79999 30.1001C9.79999 28.1667 11.3666 26.6001 13.3 26.6001H17.5C19.4334 26.6001 21 28.1667 21 30.1001V30.8001" stroke="#015B8D" stroke-width="2" stroke-miterlimit="10"/>
<path d="M15.4 40.6001V44.8001" stroke="#015B8D" stroke-width="2" stroke-miterlimit="10"/>
<path d="M15.4 26.5999V22.3999" stroke="#015B8D" stroke-width="2" stroke-miterlimit="10"/>
<path d="M65.387 24.2076C65.6418 24.461 65.8 24.8124 65.8 25.2002C65.8 25.8246 65.3912 26.3496 64.827 26.533C62.7158 27.2218 56.3976 29.3372 56.3976 29.3372C56.273 29.3778 56.1386 29.4002 56 29.4002C55.2818 29.4002 54.6 28.7184 54.6 28.0002C54.6 27.8616 54.6224 27.7272 54.6616 27.6026C54.6616 27.6026 56.7756 21.283 57.4658 19.1718C57.6506 18.609 58.177 18.2002 58.8 18.2002C59.185 18.2002 59.5336 18.3556 59.787 18.6076L65.387 24.2076Z" stroke="#015B8D" stroke-width="2" stroke-miterlimit="10"/>
</svg>
