<svg width="84" height="84" viewBox="0 0 84 84" fill="none" xmlns="http://www.w3.org/2000/svg">
<path d="M75.6 74.2003H8.40005C5.30745 74.2003 2.80005 71.6929 2.80005 68.6003V65.8003H81.2V68.6003C81.2 71.6929 78.6926 74.2003 75.6 74.2003Z" stroke="#015B8D" stroke-width="2" stroke-miterlimit="10"/>
<path d="M77 29.4004V65.8004" stroke="#015B8D" stroke-width="2" stroke-miterlimit="10"/>
<path d="M64.3944 11.2002H71.4C74.4926 11.2002 77 13.7076 77 16.8002V21.0002" stroke="#015B8D" stroke-width="2" stroke-miterlimit="10"/>
<path d="M7 65.8002V16.8002C7 13.7076 9.5074 11.2002 12.6 11.2002H32.2" stroke="#015B8D" stroke-width="2" stroke-miterlimit="10"/>
<path d="M74.2001 70V74.2" stroke="#015B8D" stroke-width="2" stroke-miterlimit="10"/>
<path d="M68.6001 70V74.2" stroke="#015B8D" stroke-width="2" stroke-miterlimit="10"/>
<path d="M63 70V74.2" stroke="#015B8D" stroke-width="2" stroke-miterlimit="10"/>
<path d="M15.4 79.8003H35" stroke="#015B8D" stroke-width="2" stroke-miterlimit="10"/>
<path d="M37.8 79.8003H40.6" stroke="#015B8D" stroke-width="2" stroke-miterlimit="10"/>
<path d="M50.4 8.40039V12.6004" stroke="#015B8D" stroke-width="2" stroke-miterlimit="10"/>
<path d="M46.2001 21.0001C46.2001 22.5457 47.4545 23.8001 49.0001 23.8001H51.8001C53.3457 23.8001 54.6001 22.5457 54.6001 21.0001C54.6001 19.4545 53.3457 18.2001 51.8001 18.2001H49.0001C47.4545 18.2001 46.2001 16.9457 46.2001 15.4001C46.2001 13.8545 47.4545 12.6001 49.0001 12.6001H51.8001C53.3457 12.6001 54.6001 13.8545 54.6001 15.4001" stroke="#015B8D" stroke-width="2" stroke-miterlimit="10"/>
<path d="M50.4 28.0003V23.8003" stroke="#015B8D" stroke-width="2" stroke-miterlimit="10"/>
<path d="M36.4 23.8002V35.7394C36.4 36.27 36.9936 36.5836 37.4304 36.284L43.393 32.2002H61.6C63.1456 32.2002 64.4 30.9458 64.4 29.4002V7.0002C64.4 5.4546 63.1456 4.2002 61.6 4.2002H39.2C37.6544 4.2002 36.4 5.4546 36.4 7.0002V15.4002" stroke="#015B8D" stroke-width="2" stroke-miterlimit="10"/>
<path d="M70.3682 60.084L64.4056 56.0002H46.2C44.6544 56.0002 43.4 54.7458 43.4 53.2002V42.0002C43.4 40.4546 44.6544 39.2002 46.2 39.2002H68.6C70.1456 39.2002 71.4 40.4546 71.4 42.0002V59.5394C71.4 60.07 70.805 60.3836 70.3682 60.084Z" stroke="#015B8D" stroke-width="2" stroke-miterlimit="10"/>
<path d="M30.8 42.3993C30.8 46.0463 27.6668 49.0003 23.8 49.0003C19.9332 49.0003 16.8 46.0463 16.8 42.3993V37.4013C16.8 33.7543 19.9332 30.8003 23.8 30.8003C27.6668 30.8003 30.8 33.7543 30.8 37.4013V42.3993Z" stroke="#015B8D" stroke-width="2" stroke-miterlimit="10"/>
<path d="M12.6001 61.6001C12.6001 57.7333 15.7333 54.6001 19.6001 54.6001H28.0001C31.8669 54.6001 35.0001 57.7333 35.0001 61.6001" stroke="#015B8D" stroke-width="2" stroke-miterlimit="10"/>
<path d="M47.6001 44.8003H63.0001" stroke="#015B8D" stroke-width="2" stroke-miterlimit="10"/>
<path d="M47.6001 50.4004H67.2001" stroke="#015B8D" stroke-width="2" stroke-miterlimit="10"/>
<path d="M14 15.3999H11.2V18.1999H14V15.3999Z" fill="black"/>
<path d="M14 21H11.2V23.8H14V21Z" fill="black"/>
<path d="M14 26.6001H11.2V29.4001H14V26.6001Z" fill="black"/>
<path d="M77 23.7998V26.5998" stroke="black" stroke-width="2" stroke-miterlimit="10"/>
<path d="M36.4 18.2002V21.0002" stroke="black" stroke-width="2" stroke-miterlimit="10"/>
</svg>
